<svg id="Layer_1" data-name="Layer 1" xmlns="http://www.w3.org/2000/svg" viewBox="0 0 1487.26 79.06"><defs><style>.cls-1{fill:none;stroke:#000;}</style></defs><path class="cls-1" d="M1468.62,64.72s-2.74-.88-10.27-1.31-4.4,1.94-12.57-.11-10.67,0-18.84,0-18.19-7.82-23.21-7.82-8.8-2.61-16.33-3.48-7.54.87-16.33-.42-9.42,1.73-16.33,1.73-10,1.75-15.7,1.31-9.42,1.75-14.45,2.19-10.68,2.62-17.59,4.81a106,106,0,0,1-16.33,3.9,168,168,0,0,1-18.21,2.66c-8.79.87-8.79,1.31-18.21,2.19s-11.31.87-21.36,1.31-4.56-3-12.72-2.56-12.68-7.38-20.85-6.5-9.42,3.06-17,3.06-7.54,1.75-13.82,0-22.33,7.31-27.36,5.56-7.53-.87-11.3-3.06-6.91-.44-13.19,0-7.54.87-18.84,0-6.91.87-14.45.87-10.05,0-15.7-.87-7.54,0-14.45,0-11.93-.87-20.1-1.31-7.53,0-13.18.44-6.28-.44-13.19-1.32-10.68-1.31-20.1-2.76S954,59,950.26,58.56s-7.53-2.19-11.3-3.94-5,0-13.82-1.31-8.17,2.18-13.82,1.31-10.05.44-17.58-.44-11.31,0-17.59.44-10-5.56-17.59-5.13-8.79.88-20.09,2.19-11.31.44-19.47,0-15.08,2.19-18.85,2.63-8.79,2.92-14.44,2.92H771.89c-5.65,0-7.54-.11-13.82,1.2s-10.68,3.06-16.22,3.94-13.3-.44-20.83,1.75a149.11,149.11,0,0,1-17,4.18c-8.17,1.64-7.54-.43-15.7-3.06s-4.4-2.19-13.82-3.5-32.66.44-38.31.88-4.4,1.31-10.05,2.62-6.91.88-13.19,1.31a98,98,0,0,1-22.61-1.75c-6.28-1.31-10.68,0-16.33,0H491.14c-5.65,0-27-2.18-32.66-2.62s-26.38,4.7-32.66,2.5-8.16-1.31-15.07-2.62-28.27,0-32-.44-8.17.44-11.94,0-9.42,0-14.44-.88-8.8,2.19-13.19,2.19-10,.88-15.7.88S314,63.24,309.63,65s-8.8.44-13.82,0-9.42.13-14.45-.75-10-1.31-12.56-3.06-12.56,0-15.7-2.62-8.48,2.62-13.19,2.62h-15.7c-6.28,0-18.84-3.28-31.4-7.65s-13-.06-20,.94-12.15-4-20-4-14,1-25,1-7.27,2.06-15.12,2.06S93.88,57.75,86,57.75s-18.84,6.41-28.26,6.41H38.93C32,64.16,20.09,62,20.09,62"/></svg>